<svg xmlns="http://www.w3.org/2000/svg" viewBox="0 0 720 520" role="img" aria-labelledby="title desc">
  <title id="title">Artificial intelligence and data visualization</title>
  <desc id="desc">A futuristic data dashboard with neural network connections, analytics chart, and data bars.</desc>
  <defs>
    <linearGradient id="bg" x1="0" y1="0" x2="1" y2="1">
      <stop offset="0" stop-color="#0f172a"/>
      <stop offset="1" stop-color="#1e1b4b"/>
    </linearGradient>
    <linearGradient id="line" x1="0" y1="0" x2="1" y2="1">
      <stop offset="0" stop-color="#818cf8"/>
      <stop offset="1" stop-color="#22d3ee"/>
    </linearGradient>
    <filter id="glow" x="-40%" y="-40%" width="180%" height="180%">
      <feGaussianBlur stdDeviation="5" result="blur"/>
      <feMerge><feMergeNode in="blur"/><feMergeNode in="SourceGraphic"/></feMerge>
    </filter>
  </defs>
  <rect width="720" height="520" rx="28" fill="url(#bg)"/>
  <path d="M32 92H688M32 160H688M32 228H688M32 296H688M32 364H688M32 432H688" stroke="#818cf8" stroke-opacity=".12"/>
  <path d="M86 42V474M174 42V474M262 42V474M350 42V474M438 42V474M526 42V474M614 42V474" stroke="#38bdf8" stroke-opacity=".08"/>
  <rect x="48" y="42" width="178" height="44" rx="12" fill="#6366f1" fill-opacity=".14" stroke="#818cf8" stroke-opacity=".35"/>
  <text x="70" y="70" fill="#c7d2fe" font-family="monospace" font-size="17" letter-spacing="3">AI / DATA LAB</text>
  <g fill="none" stroke="url(#line)" stroke-width="3" stroke-linecap="round" stroke-linejoin="round" filter="url(#glow)">
    <path d="M112 184L214 132L304 210L412 142L516 232L624 164" stroke-dasharray="7 10"/>
    <path d="M214 132L252 356L412 142L470 350L516 232" stroke-dasharray="7 10"/>
    <path d="M252 356L356 414L470 350" stroke-dasharray="7 10"/>
  </g>
  <g fill="#38d9f4" filter="url(#glow)">
    <circle cx="112" cy="184" r="8"/><circle cx="214" cy="132" r="9"/><circle cx="304" cy="210" r="8"/><circle cx="412" cy="142" r="9"/><circle cx="516" cy="232" r="8"/><circle cx="624" cy="164" r="8"/><circle cx="252" cy="356" r="9"/><circle cx="356" cy="414" r="8"/><circle cx="470" cy="350" r="9"/>
  </g>
  <g fill="none" stroke="#a5b4fc" stroke-width="4" stroke-linecap="round" stroke-linejoin="round">
    <path d="M78 446L154 402L224 420L304 352L376 374L454 308L532 332L646 252"/>
  </g>
  <g fill="url(#line)">
    <rect x="82" y="112" width="18" height="34" rx="5"/><rect x="110" y="94" width="18" height="52" rx="5"/><rect x="138" y="70" width="18" height="76" rx="5"/>
  </g>
  <rect x="540" y="382" width="118" height="64" rx="14" fill="#0f172a" fill-opacity=".7" stroke="#818cf8" stroke-opacity=".3"/>
  <text x="560" y="408" fill="#94a3b8" font-family="monospace" font-size="11" letter-spacing="2">MODEL SIGNAL</text>
  <text x="560" y="430" fill="#67e8f9" font-family="monospace" font-size="17">ACTIVE</text>
</svg>
